# xmcd CD database file
#
# Track frame offsets:
#	182
#	17745
#	32975
#	49307
#	61137
#	75385
#	91782
#	108212
#	127465
#	143217
#	158545
#	176802
#	190907
#	208202
#	226772
#	245095
#	264287
#
# Disc length: 3780 seconds
#
# Revision: 4
# Processed by: cddbd v1.5.1PL2 Copyright (c) Steve Scherf et al.
# Submitted via: CDex 1.51
#
DISCID=e70ec211
DTITLE=Kenny Chesney - Greatest Hits
DYEAR=2000
DGENRE=Country
TTITLE0=I Lost It
TTITLE1=Don't Happen Twice
TTITLE2=The Tin Man
TTITLE3=Fall In Love
TTITLE4=All I Need To Know
TTITLE5=For The First Time
TTITLE6=Me And You
TTITLE7=Back Where I Come From [Live]
TTITLE8=When I Close My Eyes
TTITLE9=She 's Got It All
TTITLE10=That's Why I'm Here
TTITLE11=How Forever Feels
TTITLE12=You Had Me From Hello
TTITLE13=She Thinks My Tractor's Sexy
TTITLE14=What I Need To Do
TTITLE15=Baptism Duet with Randy Travis
TTITLE16=Because Of Your Love
EXTD=YEAR: 2000
EXTT0=
EXTT1=
EXTT2=
EXTT3=
EXTT4=
EXTT5=
EXTT6=
EXTT7=
EXTT8=
EXTT9=
EXTT10=
EXTT11=
EXTT12=
EXTT13=
EXTT14=
EXTT15=
EXTT16=
PLAYORDER=
